<svg viewBox="0 0 180 180" xmlns="http://www.w3.org/2000/svg" role="img" aria-label="content">
  <defs>
    <clipPath id="clip-content"><rect x="0" y="0" width="180" height="180" rx="42" ry="42"/></clipPath>
    <linearGradient id="hl-content" x1="0" y1="0" x2="0" y2="1">
      <stop offset="0%" stop-color="white" stop-opacity="0.25"/>
      <stop offset="55%" stop-color="white" stop-opacity="0"/>
    </linearGradient>
  </defs>
  <defs><linearGradient id="bg-content" x1="0" y1="0" x2="1" y2="1">
    <stop offset="0%" stop-color="#f59e0b"/>
    <stop offset="100%" stop-color="#b45309"/>
  </linearGradient></defs>
  <rect x="0" y="0" width="180" height="180" rx="42" ry="42" fill="url(#bg-content)"/>
  <g clip-path="url(#clip-content)">
    <rect x="40" y="58" width="100" height="82" rx="10" fill="white" fill-opacity="0.92"/>
    <rect x="40" y="58" width="56" height="14" rx="6" fill="white" fill-opacity="0.92"/>
    <g fill="#b45309">
      <rect x="52" y="82" width="22" height="22" rx="3"/>
      <rect x="80" y="82" width="22" height="22" rx="3"/>
      <rect x="108" y="82" width="22" height="22" rx="3"/>
      <rect x="52" y="110" width="22" height="22" rx="3" fill-opacity="0.55"/>
      <rect x="80" y="110" width="22" height="22" rx="3" fill-opacity="0.55"/>
      <rect x="108" y="110" width="22" height="22" rx="3" fill-opacity="0.55"/>
    </g>
  </g>
  <g clip-path="url(#clip-content)">
    <rect x="0" y="0" width="180" height="180" fill="url(#hl-content)"/>
    <rect x="0.5" y="0.5" width="179" height="179" rx="41.5" ry="41.5"
          fill="none" stroke="white" stroke-opacity="0.18" stroke-width="1"/>
  </g>
</svg>
