<?xml version="1.0" encoding="UTF-8"?>
<svg id="_レイヤー_0_xA0_画像" data-name="レイヤー_0_xA0_画像" xmlns="http://www.w3.org/2000/svg" version="1.1" viewBox="0 0 288 288">
  <!-- Generator: Adobe Illustrator 29.5.1, SVG Export Plug-In . SVG Version: 2.1.0 Build 141)  -->
  <defs>
    <style>
      .st0 {
        fill: #fff;
      }
    </style>
  </defs>
  <path class="st0" d="M0,0v288h288V0H0ZM130,192.78c8.82,0,18.18-1.98,24.12-4.75l3.6,19.21c-5.22,2.77-16.74,5.94-31.5,5.94-38.52,0-61.92-26.53-61.92-67.32,0-43.96,27.9-70.49,64.98-70.49,14.58,0,24.84,3.37,29.34,5.94l-4.68,19.4c-5.76-2.77-13.86-5.15-23.76-5.15-24.66,0-42.48,17.03-42.48,49.1,0,29.51,15.48,48.12,42.3,48.12ZM224.86,135.76c-1.98-.4-3.96-.59-6.66-.59-10.44,0-17.82,7.33-19.8,18.41-.36,2.18-.54,4.75-.54,7.33v50.09h-22.14v-65.34c0-13.07-.18-22.57-.72-31.08h19.08l.9,18.22h.54c4.32-13.46,14.58-20.39,24.12-20.39,2.16,0,3.42.2,5.22.59v22.76h0Z"/>
</svg>