<?xml version="1.0" encoding="utf-8"?>
<!-- Generator: Adobe Illustrator 24.0.1, SVG Export Plug-In . SVG Version: 6.00 Build 0)  -->
<svg version="1.1" id="レイヤー_0_xA0_画像_1_"
	 xmlns="http://www.w3.org/2000/svg" xmlns:xlink="http://www.w3.org/1999/xlink" x="0px" y="0px" viewBox="0 0 288 288"
	 style="enable-background:new 0 0 288 288;" xml:space="preserve">
<g>
	<g>
		<path d="M0,0v288h288V0H0z M130,192.78c8.82,0,18.18-1.98,24.12-4.75l3.6,19.21c-5.22,2.77-16.74,5.94-31.5,5.94
			c-38.52,0-61.92-26.53-61.92-67.32c0-43.96,27.9-70.49,64.98-70.49c14.58,0,24.84,3.37,29.34,5.94l-4.68,19.4
			c-5.76-2.77-13.86-5.15-23.76-5.15c-24.66,0-42.48,17.03-42.48,49.1C87.7,174.17,103.18,192.78,130,192.78z M224.86,135.76
			c-1.98-0.4-3.96-0.59-6.66-0.59c-10.44,0-17.82,7.33-19.8,18.41c-0.36,2.18-0.54,4.75-0.54,7.33V211h-22.14v-65.34
			c0-13.07-0.18-22.57-0.72-31.08h19.08l0.9,18.22h0.54c4.32-13.46,14.58-20.39,24.12-20.39c2.16,0,3.42,0.2,5.22,0.59V135.76z"/>
	</g>
</g>
</svg>
