<svg viewBox="0 0 180 180" xmlns="http://www.w3.org/2000/svg" role="img" aria-label="osgi">
  <defs>
    <clipPath id="clip-osgi"><rect x="0" y="0" width="180" height="180" rx="42" ry="42"/></clipPath>
    <linearGradient id="hl-osgi" x1="0" y1="0" x2="0" y2="1">
      <stop offset="0%" stop-color="white" stop-opacity="0.25"/>
      <stop offset="55%" stop-color="white" stop-opacity="0"/>
    </linearGradient>
  </defs>
  <defs><linearGradient id="bg-osgi" x1="0" y1="0" x2="1" y2="1">
    <stop offset="0%" stop-color="#475569"/>
    <stop offset="100%" stop-color="#0f172a"/>
  </linearGradient></defs>
  <rect x="0" y="0" width="180" height="180" rx="42" ry="42" fill="url(#bg-osgi)"/>
  <g clip-path="url(#clip-osgi)">
    <rect x="34" y="46" width="112" height="88" rx="10" fill="#0b1220" stroke="white" stroke-opacity="0.25" stroke-width="1.5"/>
    <line x1="34" y1="64" x2="146" y2="64" stroke="white" stroke-opacity="0.18" stroke-width="1.5"/>
    <g fill="#7dd3fc">
      <circle cx="46" cy="55" r="3"/>
      <circle cx="56" cy="55" r="3" fill="#fbbf24"/>
      <circle cx="66" cy="55" r="3" fill="#34d399"/>
    </g>
    <g stroke="#7dd3fc" stroke-width="3" stroke-linecap="round" fill="none">
      <polyline points="46,80 54,86 46,92"/>
    </g>
    <g fill="white">
      <rect x="60" y="82" width="40" height="6" rx="2" fill-opacity="0.85"/>
      <rect x="46" y="100" width="56" height="6" rx="2" fill-opacity="0.5"/>
      <rect x="46" y="114" width="36" height="6" rx="2" fill-opacity="0.5"/>
    </g>
    <g fill="#7dd3fc" fill-opacity="0.85">
      <rect x="112" y="98" width="22" height="22" rx="3"/>
    </g>
  </g>
  <g clip-path="url(#clip-osgi)">
    <rect x="0" y="0" width="180" height="180" fill="url(#hl-osgi)"/>
    <rect x="0.5" y="0.5" width="179" height="179" rx="41.5" ry="41.5"
          fill="none" stroke="white" stroke-opacity="0.18" stroke-width="1"/>
  </g>
</svg>
