<svg viewBox="0 0 180 180" xmlns="http://www.w3.org/2000/svg" role="img" aria-label="eip-mod">
  <defs>
    <clipPath id="clip-eip-mod"><rect x="0" y="0" width="180" height="180" rx="42" ry="42"/></clipPath>
    <linearGradient id="hl-eip-mod" x1="0" y1="0" x2="0" y2="1">
      <stop offset="0%" stop-color="white" stop-opacity="0.25"/>
      <stop offset="55%" stop-color="white" stop-opacity="0"/>
    </linearGradient>
  </defs>
  <defs><linearGradient id="bg-eip-mod" x1="0" y1="0" x2="1" y2="1">
    <stop offset="0%" stop-color="#06b6d4"/>
    <stop offset="100%" stop-color="#155e75"/>
  </linearGradient></defs>
  <rect x="0" y="0" width="180" height="180" rx="42" ry="42" fill="url(#bg-eip-mod)"/>
  <g clip-path="url(#clip-eip-mod)">
    <path d="M 40 90 H 70 A 12 12 0 0 1 82 102 V 120 A 12 12 0 0 0 94 132 H 110"
          fill="none" stroke="white" stroke-width="7" stroke-linecap="round" stroke-opacity="0.4"/>
    <path d="M 40 90 H 70 A 12 12 0 0 1 82 102 V 120 A 12 12 0 0 0 94 132 H 110"
          fill="none" stroke="white" stroke-width="3" stroke-linecap="round" stroke-dasharray="4 6"/>
    <circle cx="40" cy="90" r="10" fill="white"/>
    <rect x="100" y="122" width="34" height="20" rx="4" fill="white"/>
    <rect x="78" y="48" width="36" height="22" rx="4" fill="white"/>
    <line x1="96" y1="70" x2="96" y2="90" stroke="white" stroke-width="4" stroke-linecap="round"/>
    <circle cx="96" cy="90" r="6" fill="white"/>
  </g>
  <g clip-path="url(#clip-eip-mod)">
    <rect x="0" y="0" width="180" height="180" fill="url(#hl-eip-mod)"/>
    <rect x="0.5" y="0.5" width="179" height="179" rx="41.5" ry="41.5"
          fill="none" stroke="white" stroke-opacity="0.18" stroke-width="1"/>
  </g>
</svg>
