<svg viewBox="0 0 180 180" xmlns="http://www.w3.org/2000/svg" role="img" aria-label="memos">
  <defs>
    <clipPath id="clip-memos"><rect x="0" y="0" width="180" height="180" rx="42" ry="42"/></clipPath>
    <linearGradient id="hl-memos" x1="0" y1="0" x2="0" y2="1">
      <stop offset="0%" stop-color="white" stop-opacity="0.25"/>
      <stop offset="55%" stop-color="white" stop-opacity="0"/>
    </linearGradient>
  </defs>
  <defs><linearGradient id="bg-memos" x1="0" y1="0" x2="1" y2="1">
    <stop offset="0%" stop-color="#fde68a"/>
    <stop offset="100%" stop-color="#d97706"/>
  </linearGradient></defs>
  <rect x="0" y="0" width="180" height="180" rx="42" ry="42" fill="url(#bg-memos)"/>
  <g clip-path="url(#clip-memos)">
    <path d="M 44 44 H 124 L 142 62 V 142 H 44 Z" fill="white"/>
    <path d="M 124 44 V 62 H 142" fill="none" stroke="#d97706" stroke-width="2"/>
    <g fill="#d97706">
      <rect x="56" y="60" width="14" height="14" rx="2"/>
      <rect x="74" y="60" width="14" height="14" rx="2" fill-opacity="0.7"/>
      <rect x="92" y="60" width="14" height="14" rx="2" fill-opacity="0.5"/>
    </g>
    <g stroke="#92400e" stroke-width="4" stroke-linecap="round">
      <line x1="56" y1="90" x2="128" y2="90"/>
      <line x1="56" y1="104" x2="116" y2="104" stroke-opacity="0.75"/>
      <line x1="56" y1="118" x2="124" y2="118" stroke-opacity="0.6"/>
      <line x1="56" y1="132" x2="100" y2="132" stroke-opacity="0.45"/>
    </g>
  </g>
  <g clip-path="url(#clip-memos)">
    <rect x="0" y="0" width="180" height="180" fill="url(#hl-memos)"/>
    <rect x="0.5" y="0.5" width="179" height="179" rx="41.5" ry="41.5"
          fill="none" stroke="white" stroke-opacity="0.18" stroke-width="1"/>
  </g>
</svg>
