<svg viewBox="0 0 180 180" xmlns="http://www.w3.org/2000/svg" role="img" aria-label="text">
  <defs>
    <clipPath id="clip-text"><rect x="0" y="0" width="180" height="180" rx="42" ry="42"/></clipPath>
    <linearGradient id="hl-text" x1="0" y1="0" x2="0" y2="1">
      <stop offset="0%" stop-color="white" stop-opacity="0.25"/>
      <stop offset="55%" stop-color="white" stop-opacity="0"/>
    </linearGradient>
  </defs>
  <defs><linearGradient id="bg-text" x1="0" y1="0" x2="1" y2="1">
    <stop offset="0%" stop-color="#e2e8f0"/>
    <stop offset="100%" stop-color="#94a3b8"/>
  </linearGradient></defs>
  <rect x="0" y="0" width="180" height="180" rx="42" ry="42" fill="url(#bg-text)"/>
  <g clip-path="url(#clip-text)">
    <path d="M 50 36 H 116 L 138 58 V 144 H 50 Z" fill="white"/>
    <path d="M 116 36 V 58 H 138" fill="none" stroke="#94a3b8" stroke-width="2"/>
    <g stroke="#475569" stroke-width="4" stroke-linecap="round">
      <line x1="62" y1="74" x2="118" y2="74"/>
      <line x1="62" y1="88" x2="124" y2="88"/>
      <line x1="62" y1="102" x2="110" y2="102"/>
      <line x1="62" y1="116" x2="126" y2="116" stroke-opacity="0.55"/>
      <line x1="62" y1="130" x2="100" y2="130" stroke-opacity="0.55"/>
    </g>
    <g transform="rotate(35 130 132)">
      <rect x="116" y="124" width="34" height="10" rx="2" fill="#f59e0b"/>
      <polygon points="150,124 158,129 150,134" fill="#1f2937"/>
      <rect x="112" y="124" width="6" height="10" fill="#0f172a"/>
    </g>
  </g>
  <g clip-path="url(#clip-text)">
    <rect x="0" y="0" width="180" height="180" fill="url(#hl-text)"/>
    <rect x="0.5" y="0.5" width="179" height="179" rx="41.5" ry="41.5"
          fill="none" stroke="white" stroke-opacity="0.18" stroke-width="1"/>
  </g>
</svg>
