<svg xmlns="http://www.w3.org/2000/svg" viewBox="0 0 100 100">
  <defs>
    <radialGradient id="berry" cx="0.36" cy="0.32" r="0.8">
      <stop offset="0" stop-color="#ff9db2"/>
      <stop offset="0.55" stop-color="#ed5a77"/>
      <stop offset="1" stop-color="#cf3658"/>
    </radialGradient>
  </defs>
  <circle cx="50" cy="50" r="50" fill="url(#berry)"/>
  <g fill="#ffe7a3">
    <ellipse cx="30" cy="48" rx="2.6" ry="3.6" transform="rotate(-20 30 48)"/>
    <ellipse cx="46" cy="44" rx="2.6" ry="3.6"/>
    <ellipse cx="62" cy="47" rx="2.6" ry="3.6" transform="rotate(20 62 47)"/>
    <ellipse cx="74" cy="58" rx="2.6" ry="3.6" transform="rotate(25 74 58)"/>
    <ellipse cx="38" cy="62" rx="2.6" ry="3.6" transform="rotate(-10 38 62)"/>
    <ellipse cx="54" cy="60" rx="2.6" ry="3.6" transform="rotate(10 54 60)"/>
    <ellipse cx="26" cy="64" rx="2.6" ry="3.6" transform="rotate(-25 26 64)"/>
    <ellipse cx="46" cy="76" rx="2.6" ry="3.6"/>
    <ellipse cx="64" cy="73" rx="2.6" ry="3.6" transform="rotate(15 64 73)"/>
  </g>
  <path d="M50 30 C44 22 34 20 26 24 C34 26 38 30 40 33 C34 34 28 38 26 44 C34 40 42 38 50 37 C58 38 66 40 74 44 C72 38 66 34 60 33 C62 30 66 26 74 24 C66 20 56 22 50 30 Z" fill="#57b894"/>
  <path d="M50 30 C50 24 52 18 56 14" fill="none" stroke="#3f9677" stroke-width="4" stroke-linecap="round"/>
  <ellipse cx="34" cy="26" rx="10" ry="5" fill="#ffffff" fill-opacity="0.18" transform="rotate(-25 34 26)"/>
</svg>
